HIERARCHY
ROOT root
{
	OFFSET 0.000000 0.000000 0.000000
	CHANNELS 6 Xposition Yposition Zposition Zrotation Yrotation Xrotation
	JOINT lhip
	{
		OFFSET 0.058581 -0.082280 -0.017664
		CHANNELS 3 Zrotation Yrotation Xrotation
		JOINT lknee
		{
			OFFSET 0.043451 -0.386469 0.008037
			CHANNELS 3 Zrotation Yrotation Xrotation
			JOINT lankle
			{
				OFFSET -0.014790 -0.426874 -0.037428
				CHANNELS 3 Zrotation Yrotation Xrotation
				JOINT ltoe
				{
					OFFSET 0.041054 -0.060286 0.122042
					CHANNELS 3 Zrotation Yrotation Xrotation
					End Site
					{
						OFFSET 0.000000 0.000000 0.000000
					}
				}
			}
		}
	}
	JOINT rhip
	{
		OFFSET -0.060310 -0.090513 -0.013543
		CHANNELS 3 Zrotation Yrotation Xrotation
		JOINT rknee
		{
			OFFSET -0.043257 -0.383688 -0.004843
			CHANNELS 3 Zrotation Yrotation Xrotation
			JOINT rankle
			{
				OFFSET 0.019056 -0.420046 -0.034562
				CHANNELS 3 Zrotation Yrotation Xrotation
				JOINT rtoe
				{
					OFFSET -0.034840 -0.062106 0.130323
					CHANNELS 3 Zrotation Yrotation Xrotation
					End Site
					{
						OFFSET 0.000000 0.000000 0.000000
					}
				}
			}
		}
	}
	JOINT lowerback
	{
		OFFSET 0.004439 0.124404 -0.038385
		CHANNELS 3 Zrotation Yrotation Xrotation
		JOINT upperback
		{
			OFFSET 0.004488 0.137956 0.026820
			CHANNELS 3 Zrotation Yrotation Xrotation
			JOINT chest
			{
				OFFSET -0.002265 0.056032 0.002855
				CHANNELS 3 Zrotation Yrotation Xrotation
				JOINT lowerneck
				{
					OFFSET -0.013390 0.211636 -0.033468
					CHANNELS 3 Zrotation Yrotation Xrotation
					JOINT upperneck
					{
						OFFSET 0.010113 0.088937 0.050410
						CHANNELS 3 Zrotation Yrotation Xrotation
						End Site
						{
							OFFSET 0.000000 0.000000 0.000000
						}
					}
				}
				JOINT lclavicle
				{
					OFFSET 0.071702 0.114000 -0.018898
					CHANNELS 3 Zrotation Yrotation Xrotation
					JOINT lshoulder
					{
						OFFSET 0.122921 0.045205 -0.019046
						CHANNELS 3 Zrotation Yrotation Xrotation
						JOINT lelbow
						{
							OFFSET 0.255332 -0.015649 -0.022946
							CHANNELS 3 Zrotation Yrotation Xrotation
							JOINT lwrist
							{
								OFFSET 0.265709 0.012698 -0.007375
								CHANNELS 3 Zrotation Yrotation Xrotation
								End Site
								{
									OFFSET 0.000000 0.000000 0.000000
								}
							}
						}
					}
				}
				JOINT rclavicle
				{
					OFFSET -0.082954 0.112472 -0.023707
					CHANNELS 3 Zrotation Yrotation Xrotation
					JOINT rshoulder
					{
						OFFSET -0.113228 0.046853 -0.008472
						CHANNELS 3 Zrotation Yrotation Xrotation
						JOINT relbow
						{
							OFFSET -0.260127 -0.014369 -0.031269
							CHANNELS 3 Zrotation Yrotation Xrotation
							JOINT rwrist
							{
								OFFSET -0.269108 0.006794 -0.006027
								CHANNELS 3 Zrotation Yrotation Xrotation
								End Site
								{
									OFFSET 0.000000 0.000000 0.000000
								}
							}
						}
					}
				}
			}
		}
	}
}
MOTION
Frames: 11
Frame Time: 0.033333
0.043287 0.246146 1.000174 91.606469 -0.077307 90.522291 2.151374 2.102494 -2.448640 2.172277 4.123153 6.936917 -0.148711 4.481607 -7.810690 0.000000 -0.000000 0.000000 -2.497748 -4.196477 -8.462094 -4.497683 -11.146986 12.267326 2.931668 -4.241066 -2.072329 0.000000 -0.000000 0.000000 1.243263 0.470784 12.627194 2.857583 -4.501059 8.964355 1.591167 -1.608677 -2.035224 -1.776286 0.693943 1.982938 -1.443991 -2.124228 -6.261757 -30.895313 -9.667869 3.850487 -53.537134 -11.223102 15.717866 58.161214 -82.387698 -25.520635 -13.292083 -5.610116 3.594575 30.356486 11.702118 3.192176 52.463909 9.370343 17.034275 -68.611799 72.557353 -39.399094 16.247657 4.018601 7.150080 
0.044491 0.245718 0.999388 91.429034 -0.005686 90.417459 2.168188 2.166724 -2.031722 2.160822 4.094740 6.683752 -0.040488 4.481930 -7.991274 0.000000 -0.000000 0.000000 -2.547805 -4.185888 -8.189880 -4.346058 -11.117352 12.209866 3.128962 -4.151739 -1.922157 0.000000 -0.000000 0.000000 1.267719 0.336735 11.331568 2.750758 -4.599009 10.485753 1.574852 -1.373081 -1.584125 -2.294559 -0.298401 6.370381 -1.395516 -1.759621 -9.182107 -29.746711 -9.437056 3.493120 -55.150025 -12.047425 15.951608 59.250163 -82.357656 -24.706478 -14.989173 -4.663844 1.786287 28.778849 11.472064 2.755040 54.662557 10.337305 17.239085 -71.585836 72.867754 -40.753317 18.592379 3.348660 5.783765 
0.044728 0.245315 0.999120 91.131694 -0.043781 90.270107 2.044944 2.209714 -1.758981 2.195149 4.377808 6.667063 0.235599 4.286768 -8.193810 0.000000 -0.000000 0.000000 -2.622262 -4.119429 -8.124186 -4.441682 -11.286862 12.355505 3.013448 -3.634321 -1.895817 0.000000 -0.000000 0.000000 1.158147 0.381018 10.137256 2.766862 -4.735799 12.122404 1.413799 -1.293718 -0.986964 -2.598322 -0.484418 10.358812 -1.387121 -1.613283 -11.317048 -28.912927 -8.935021 2.913567 -56.093423 -13.130177 16.199911 61.763977 -82.815266 -26.674141 -16.273208 -3.874277 0.903882 27.800844 10.944704 2.285638 56.136770 12.009967 17.690794 -74.071713 73.427712 -42.946637 20.689536 2.712222 3.889687 
0.044283 0.245124 0.998772 90.730483 -0.165002 90.652263 1.641318 1.781322 -2.389312 3.129897 7.268596 7.352598 -1.725443 1.747987 -8.639998 0.000000 -0.000000 0.000000 -2.780079 -3.900886 -8.952623 -4.864655 -12.270760 13.019800 3.114242 -2.105653 -2.013103 0.000000 -0.000000 0.000000 0.986782 0.641212 8.780613 2.379992 -5.282268 15.073476 1.638931 -1.092060 -2.692269 -5.010600 -1.459711 16.336535 0.466468 1.357902 -14.644820 -28.181180 -8.965297 2.051483 -57.549066 -12.511517 14.346974 77.910571 -83.857112 -45.072055 -26.184708 -1.029261 5.454452 28.137306 11.232191 4.302004 55.552215 13.809805 14.903032 -81.708874 75.537518 -52.864937 24.269566 -1.336241 8.080788 
0.043285 0.245302 0.998477 90.414758 -0.189690 90.591947 1.621781 1.690026 -2.453236 3.063241 7.511296 7.575054 -1.741962 1.927648 -8.730805 0.000000 -0.000000 0.000000 -2.921109 -3.792432 -9.219784 -4.807539 -12.226607 13.416463 3.266939 -1.873524 -2.062045 0.000000 -0.000000 0.000000 0.919738 0.763151 8.854641 2.444023 -5.157997 15.646844 1.580869 -1.048654 -2.425206 -4.673474 -0.939795 16.786482 0.251456 1.417606 -14.388812 -28.001812 -8.651571 1.733348 -57.833555 -13.164767 14.554992 83.785745 -83.947317 -51.096446 -25.689335 -1.324415 4.966654 28.033174 10.933527 4.042294 55.458643 14.600672 15.285165 -84.769926 75.829269 -55.752173 23.539624 -0.989297 7.881579 
0.042001 0.245625 0.998070 90.157499 -0.209891 90.739850 1.672444 1.582788 -2.869770 2.934072 7.804405 8.001960 -1.681458 1.857646 -8.816116 0.000000 -0.000000 0.000000 -3.076816 -3.829470 -9.779515 -4.721824 -12.226989 13.912359 3.323558 -1.571859 -2.127682 0.000000 -0.000000 0.000000 0.896462 0.931612 8.965797 2.479656 -5.131564 16.093961 1.551406 -1.012474 -2.498566 -4.458725 -0.389016 17.134899 0.202531 1.585536 -13.890546 -27.762562 -8.898662 1.893842 -58.275420 -13.260244 14.570777 92.946951 -83.415287 -60.114640 -24.501560 -1.779059 4.719663 27.979345 11.127493 4.197298 55.495801 14.956164 15.304320 -89.075467 75.782860 -59.902439 22.358509 -0.348286 7.930727 
0.041043 0.245690 0.998010 90.210381 -0.127801 90.938680 1.853014 1.756322 -3.368749 2.791320 8.041960 8.416035 -1.832080 1.378397 -8.914698 0.000000 -0.000000 0.000000 -3.055072 -3.943190 -10.161417 -4.679700 -12.379575 14.099941 3.209667 -1.244480 -2.270918 0.000000 -0.000000 0.000000 1.002413 0.917909 9.430615 2.455206 -5.189396 15.916166 1.662794 -0.995207 -2.754955 -4.567430 -0.238795 17.175824 0.392019 1.905509 -13.406699 -27.664620 -9.446938 2.172272 -58.667537 -12.945728 14.294960 101.211858 -82.776578 -68.253760 -24.502352 -1.472542 5.670438 28.060123 11.755501 4.794073 55.789419 14.928589 14.924820 -93.468586 75.169436 -64.745390 22.012074 -0.228383 9.006103 
0.040300 0.246308 0.998035 90.361995 -0.099602 91.069030 1.868609 1.812925 -3.685940 2.775062 8.023086 8.602347 -1.834114 1.185485 -8.869195 0.000000 -0.000000 0.000000 -3.031679 -3.989436 -10.224255 -4.689467 -12.420751 13.897094 3.171335 -1.237893 -2.185236 0.000000 -0.000000 0.000000 1.049727 0.920251 9.692620 2.446166 -5.249729 15.874913 1.759426 -1.007691 -2.854279 -4.554046 -0.356521 17.084589 0.619115 2.016413 -13.011395 -27.690552 -10.024754 2.381907 -58.802980 -12.890376 14.273168 105.801400 -82.190328 -72.526376 -24.304552 -1.089412 5.876061 28.079036 12.295766 5.125326 55.539004 14.971868 14.648124 -95.550739 74.919206 -66.872693 21.646803 0.153638 9.094334 
0.039824 0.246992 0.998076 90.476404 -0.053196 91.070095 1.834104 1.794590 -3.590459 2.821984 8.109209 8.338013 -1.807178 1.047709 -8.848010 0.000000 -0.000000 0.000000 -2.949949 -3.912803 -10.190798 -4.857471 -12.605405 13.816515 3.145662 -1.189635 -2.136778 0.000000 -0.000000 0.000000 1.135086 0.847336 10.074669 2.426221 -5.266661 15.835851 1.824890 -1.049721 -3.083829 -4.569819 -0.520557 16.843364 0.715470 1.918090 -12.200154 -27.880562 -10.701417 2.743983 -58.861209 -12.945302 14.173866 108.428205 -81.306521 -75.202169 -24.649237 -1.034861 6.583106 28.080085 12.883099 5.511743 55.319079 15.093482 14.408391 -96.710070 74.766762 -68.083543 21.669794 0.517029 9.283576 
0.039425 0.247640 0.998180 90.656629 -0.066219 91.049999 1.680410 1.812893 -3.524534 2.988898 8.132218 8.152834 -1.805895 0.860398 -8.783826 0.000000 -0.000000 0.000000 -2.947836 -3.835410 -10.122475 -5.015574 -12.834717 13.759241 3.177443 -1.222060 -2.090609 0.000000 -0.000000 0.000000 1.119421 0.832311 10.394277 2.459386 -5.287121 15.750217 1.863739 -1.147516 -3.157868 -4.469944 -0.752792 16.643416 0.727396 1.480340 -11.041385 -28.013210 -11.139845 3.077247 -58.877572 -13.318945 14.164902 111.564571 -80.617786 -78.572409 -25.466965 -1.230595 7.030886 28.103812 13.284253 5.746650 55.112735 15.325664 14.415584 -98.216877 74.717440 -69.667694 21.506350 0.760368 9.362755 
0.039004 0.248244 0.998175 90.753811 -0.109461 90.915587 1.590352 1.728385 -3.409534 2.951372 7.981948 8.119279 -1.720631 1.061238 -8.754926 0.000000 -0.000000 0.000000 -3.039954 -3.864141 -10.053392 -4.975515 -12.614774 13.842789 3.198033 -1.515741 -2.085115 0.000000 -0.000000 0.000000 1.028618 0.975477 10.124718 2.557846 -5.311889 16.537064 1.879238 -1.163850 -2.895937 -4.618952 -1.270887 16.058408 0.878387 1.018075 -10.779778 -28.017005 -11.769345 3.240880 -58.624850 -13.960197 14.405310 113.956121 -80.142855 -81.344061 -23.631502 -1.523105 6.579979 28.159556 13.765577 5.745141 54.601946 15.609222 14.402659 -100.385861 74.492195 -71.975692 20.740593 1.055768 9.379701 
